<svg version="1.1" xmlns="http://www.w3.org/2000/svg" xmlns:xlink="http://www.w3.org/1999/xlink" preserveAspectRatio="xMidYMid meet" width="100%" viewBox="0 0 197 115">
    <defs>
        <path d="M4.55 -0.53L11.21 -0.53L11.21 36.8L4.55 36.8L4.55 -0.53Z" id="j29TbysCcK"></path>
        <path d="M27.21 41.14L27.21 47.8L-0.12 47.8L-0.12 41.14L27.21 41.14Z" id="eM9GwGnT2"></path>
        <path d="M42.55 9.8L49.21 9.8L49.21 37.14L42.55 37.14L42.55 9.8Z" id="f1L5oES0zl"></path>
        <path d="M64.88 41.14L64.88 47.8L37.55 47.8L37.55 41.14L64.88 41.14Z" id="a1HXoOiVPI"></path>
        <path d="M69.88 31.83L63.21 31.83L63.21 10.47L69.88 10.47L69.88 31.83Z" id="hqqyeIL06"></path>
        <path d="M42.55 6.47L42.55 -0.2L69.88 -0.2L69.88 6.47L42.55 6.47Z" id="diQiRaQh1"></path>
        <path d="M86.55 9.8L93.21 9.8L93.21 37.14L86.55 37.14L86.55 9.8Z" id="j3WBVFfH63"></path>
        <path d="M108.88 40.8L108.88 47.47L81.55 47.47L81.55 40.8L108.88 40.8Z" id="aPl2JbnFO"></path>
        <path d="M86.55 6.14L86.55 -0.53L113.88 -0.53L113.88 6.14L86.55 6.14Z" id="c2RbGZ0oJp"></path>
        <path d="M126.55 9.14L133.21 9.14L133.21 36.47L126.55 36.47L126.55 9.14Z" id="a1zBQmxupH"></path>
        <path d="M153.88 47.14L147.21 47.14L147.21 9.8L153.88 9.8L153.88 47.14Z" id="j1eezy6bH"></path>
        <path d="M126.55 5.8L126.55 -0.86L153.88 -0.86L153.88 5.8L126.55 5.8Z" id="d1en41BOGC"></path>
        <path d="M167.88 -0.53L174.55 -0.53L174.55 36.8L167.88 36.8L167.88 -0.53Z" id="c68l22aqBq"></path>
        <path d="M190.55 41.14L190.55 47.8L163.21 47.8L163.21 41.14L190.55 41.14Z" id="c4qEZ5e9tZ"></path>
        <path d="M66.55 116.8L59.88 116.8L59.88 79.47L66.55 79.47L66.55 116.8Z" id="abPNmWAe"></path>
        <path d="M43.88 75.14L43.88 68.47L71.21 68.47L71.21 75.14L43.88 75.14Z" id="c70Jv6I1Fs"></path>
        <path d="M85.21 78.8L91.88 78.8L91.88 106.14L85.21 106.14L85.21 78.8Z" id="b1KkMVauh"></path>
        <path d="M107.55 109.8L107.55 116.47L80.21 116.47L80.21 109.8L107.55 109.8Z" id="bb8TeR78m"></path>
        <path d="M85.21 75.14L85.21 68.47L112.55 68.47L112.55 75.14L85.21 75.14Z" id="d40OuO7Lk"></path>
        <path d="M96.88 95.8L96.88 89.14L107.21 89.14L107.21 95.8L96.88 95.8Z" id="c1d4Re2lna"></path>
        <path d="M124.79 70.43L131.23 68.7L136.76 89.33L130.32 91.06L124.79 70.43Z" id="be6g70wpn"></path>
        <path d="M156.21 70.43L149.77 68.7L144.24 89.33L150.68 91.06L156.21 70.43Z" id="bmB9Ufh8L"></path>
        <path d="M124.79 114.01L131.23 115.73L136.76 95.1L130.32 93.38L124.79 114.01Z" id="a2ReLAg61m"></path>
        <path d="M156.21 114.01L149.77 115.73L144.24 95.1L150.68 93.38L156.21 114.01Z" id="bgnh2wBb"></path>
        <path d="M175.55 116.8L182.21 116.8L182.21 79.47L175.55 79.47L175.55 116.8Z" id="a4t9uS16zg"></path>
        <path d="M198.21 75.14L198.21 68.47L170.88 68.47L170.88 75.14L198.21 75.14Z" id="akWUMYMXv"></path>
    </defs>
    <g><g><g><g>
        <use xlink:href="#j29TbysCcK" opacity="1" fill="#474747" fill-opacity="1"></use>
    </g>
    <g>
        <use xlink:href="#eM9GwGnT2" opacity="1" fill="#ff5757" fill-opacity="1"></use>
    </g>
    <g>
        <use xlink:href="#f1L5oES0zl" opacity="1" fill="#474747" fill-opacity="1"></use>
    </g>
    <g>
        <use xlink:href="#a1HXoOiVPI" opacity="1" fill="#474747" fill-opacity="1"></use>
    </g>
    <g>
        <use xlink:href="#hqqyeIL06" opacity="1" fill="#ff5757" fill-opacity="1"></use>
    </g>
    <g>
        <use xlink:href="#diQiRaQh1" opacity="1" fill="#474747" fill-opacity="1"></use>
    </g>
    <g>
        <use xlink:href="#j3WBVFfH63" opacity="1" fill="#474747" fill-opacity="1"></use>
    </g>
    <g>
        <use xlink:href="#aPl2JbnFO" opacity="1" fill="#ff5757" fill-opacity="1"></use>
    </g>
    <g>
        <use xlink:href="#c2RbGZ0oJp" opacity="1" fill="#474747" fill-opacity="1"></use>
    </g>
    <g>
        <use xlink:href="#a1zBQmxupH" opacity="1" fill="#ff5757" fill-opacity="1"></use>
    </g>
    <g>
        <use xlink:href="#j1eezy6bH" opacity="1" fill="#474747" fill-opacity="1"></use>
    </g>
    <g>
        <use xlink:href="#d1en41BOGC" opacity="1" fill="#474747" fill-opacity="1"></use>
    </g>
    <g>
        <use xlink:href="#c68l22aqBq" opacity="1" fill="#ff5757" fill-opacity="1"></use>
    </g>
    <g>
        <use xlink:href="#c4qEZ5e9tZ" opacity="1" fill="#474747" fill-opacity="1"></use>
    </g>
    <g>
        <use xlink:href="#abPNmWAe" opacity="1" fill="#ff5757" fill-opacity="1"></use>
    </g>
    <g>
        <use xlink:href="#c70Jv6I1Fs" opacity="1" fill="#474747" fill-opacity="1"></use>
    </g>
    <g>
        <use xlink:href="#b1KkMVauh" opacity="1" fill="#474747" fill-opacity="1"></use>
    </g>
    <g>
        <use xlink:href="#bb8TeR78m" opacity="1" fill="#ff5757" fill-opacity="1"></use>
    </g>
    <g>
        <use xlink:href="#d40OuO7Lk" opacity="1" fill="#474747" fill-opacity="1"></use>
    </g>
    <g>
        <use xlink:href="#c1d4Re2lna" opacity="1" fill="#474747" fill-opacity="1"></use>
    </g>
    <g>
        <use xlink:href="#be6g70wpn" opacity="1" fill="#474747" fill-opacity="1"></use>
    </g>
    <g>
        <use xlink:href="#bmB9Ufh8L" opacity="1" fill="#474747" fill-opacity="1"></use>
    </g>
    <g>
        <use xlink:href="#a2ReLAg61m" opacity="1" fill="#474747" fill-opacity="1"></use>
    </g>
    <g>
        <use xlink:href="#bgnh2wBb" opacity="1" fill="#474747" fill-opacity="1"></use>
    </g>
    <g>
        <use xlink:href="#a4t9uS16zg" opacity="1" fill="#474747" fill-opacity="1"></use>
    </g>
    <g>
        <use xlink:href="#akWUMYMXv" opacity="1" fill="#ff5757" fill-opacity="1"></use>
    </g></g></g></g>
</svg>